<svg xmlns="http://www.w3.org/2000/svg" xmlns:svg="http://www.w3.org/2000/svg" id="svg2" width="60" height="45" version="1.1"><metadata id="metadata7"/><g id="layer1" transform="translate(-49.999994,-227.36219)"><g id="metro-15" transform="translate(-124,-10)" style="display:inline"><rect style="color:#000;fill:#3c3c3c;fill-opacity:1;fill-rule:nonzero;stroke:none;stroke-width:1;marker:none;visibility:visible;display:inline;overflow:visible;enable-background:accumulate" id="rect3848" width="8" height="20" x="224" y="237.362" rx=".5" ry=".5"/><path style="fill:#fff;fill-opacity:1;stroke:none;display:inline" id="path3850" d="m 225,245.36218 0,-7 1.5,0 1.5,5.5 1.5,-5.5 1.5,0 0,7 -1,0 0,-5 -1.5,5 -1,0 -1.5,-5 0,5 z"/><rect id="rect3852" width="7" height="1" x="224.5" y="246.362" style="color:#000;fill:#2a66ff;fill-opacity:1;fill-rule:nonzero;stroke:none;stroke-width:1;marker:none;visibility:visible;display:inline;overflow:visible;enable-background:accumulate"/><rect id="rect3871" width="8" height="20" x="214" y="237.362" rx=".5" ry=".5" style="color:#000;fill:#3c3c3c;fill-opacity:1;fill-rule:nonzero;stroke:none;stroke-width:1;marker:none;visibility:visible;display:inline;overflow:visible;enable-background:accumulate"/><path id="path3873" d="m 215,245.36218 0,-7 1.5,0 1.5,5.5 1.5,-5.5 1.5,0 0,7 -1,0 0,-5 -1.5,5 -1,0 -1.5,-5 0,5 z" style="fill:#fff;fill-opacity:1;stroke:none;display:inline"/><rect style="color:#000;fill:#0a0;fill-opacity:1;fill-rule:nonzero;stroke:none;stroke-width:1;marker:none;visibility:visible;display:inline;overflow:visible;enable-background:accumulate" id="rect3875" width="7" height="1" x="214.5" y="246.362"/><rect style="color:#000;fill:#3c3c3c;fill-opacity:1;fill-rule:nonzero;stroke:none;stroke-width:1;marker:none;visibility:visible;display:inline;overflow:visible;enable-background:accumulate" id="rect3877" width="8" height="20" x="204" y="237.362" rx=".5" ry=".5"/><path style="fill:#fff;fill-opacity:1;stroke:none;display:inline" id="path3879" d="m 205,245.36218 0,-7 1.5,0 1.5,5.5 1.5,-5.5 1.5,0 0,7 -1,0 0,-5 -1.5,5 -1,0 -1.5,-5 0,5 z"/><rect id="rect3881" width="7" height="1" x="204.5" y="246.362" style="color:#000;fill:#ffd800;fill-opacity:1;fill-rule:nonzero;stroke:none;stroke-width:1;marker:none;visibility:visible;display:inline;overflow:visible;enable-background:accumulate"/><rect id="rect3883" width="8" height="20" x="194" y="237.362" rx=".5" ry=".5" style="color:#000;fill:#3c3c3c;fill-opacity:1;fill-rule:nonzero;stroke:none;stroke-width:1;marker:none;visibility:visible;display:inline;overflow:visible;enable-background:accumulate"/><path id="path3885" d="m 195,245.36218 0,-7 1.5,0 1.5,5.5 1.5,-5.5 1.5,0 0,7 -1,0 0,-5 -1.5,5 -1,0 -1.5,-5 0,5 z" style="fill:#fff;fill-opacity:1;stroke:none;display:inline"/><rect style="color:#000;fill:#ff6c00;fill-opacity:1;fill-rule:nonzero;stroke:none;stroke-width:1;marker:none;visibility:visible;display:inline;overflow:visible;enable-background:accumulate" id="rect3887" width="7" height="1" x="194.5" y="246.362"/><rect style="color:#000;fill:#3c3c3c;fill-opacity:1;fill-rule:nonzero;stroke:none;stroke-width:1;marker:none;visibility:visible;display:inline;overflow:visible;enable-background:accumulate" id="rect3889" width="8" height="20" x="184" y="237.362" rx=".5" ry=".5"/><path style="fill:#fff;fill-opacity:1;stroke:none;display:inline" id="path3891" d="m 185,245.36218 0,-7 1.5,0 1.5,5.5 1.5,-5.5 1.5,0 0,7 -1,0 0,-5 -1.5,5 -1,0 -1.5,-5 0,5 z"/><rect id="rect3893" width="7" height="1" x="184.5" y="246.362" style="color:#000;fill:#fd2e11;fill-opacity:1;fill-rule:nonzero;stroke:none;stroke-width:1;marker:none;visibility:visible;display:inline;overflow:visible;enable-background:accumulate"/><rect id="rect3963" width="8" height="20" x="224" y="262.362" rx=".5" ry=".5" style="color:#000;fill:#3c3c3c;fill-opacity:1;fill-rule:nonzero;stroke:none;stroke-width:1;marker:none;visibility:visible;display:inline;overflow:visible;enable-background:accumulate"/><path id="path3965" d="m 225,270.36218 0,-7 1.5,0 1.5,5.5 1.5,-5.5 1.5,0 0,7 -1,0 0,-5 -1.5,5 -1,0 -1.5,-5 0,5 z" style="fill:#fff;fill-opacity:1;stroke:none;display:inline"/><rect style="color:#000;fill:#ff6c00;fill-opacity:1;fill-rule:nonzero;stroke:none;stroke-width:1;marker:none;visibility:visible;display:inline;overflow:visible;enable-background:accumulate" id="rect3967" width="7" height="1" x="224.5" y="271.362"/><rect style="color:#000;fill:#3c3c3c;fill-opacity:1;fill-rule:nonzero;stroke:none;stroke-width:1;marker:none;visibility:visible;display:inline;overflow:visible;enable-background:accumulate" id="rect3969" width="8" height="20" x="214" y="262.362" rx=".5" ry=".5"/><path style="fill:#fff;fill-opacity:1;stroke:none;display:inline" id="path3971" d="m 215,270.36218 0,-7 1.5,0 1.5,5.5 1.5,-5.5 1.5,0 0,7 -1,0 0,-5 -1.5,5 -1,0 -1.5,-5 0,5 z"/><rect id="rect3973" width="7" height="1" x="214.5" y="271.362" style="color:#000;fill:#fd2e11;fill-opacity:1;fill-rule:nonzero;stroke:none;stroke-width:1;marker:none;visibility:visible;display:inline;overflow:visible;enable-background:accumulate"/><rect id="rect3975" width="8" height="20" x="204" y="262.362" rx=".5" ry=".5" style="color:#000;fill:#3c3c3c;fill-opacity:1;fill-rule:nonzero;stroke:none;stroke-width:1;marker:none;visibility:visible;display:inline;overflow:visible;enable-background:accumulate"/><path id="path3977" d="m 205,270.36218 0,-7 1.5,0 1.5,5.5 1.5,-5.5 1.5,0 0,7 -1,0 0,-5 -1.5,5 -1,0 -1.5,-5 0,5 z" style="fill:#fff;fill-opacity:1;stroke:none;display:inline"/><rect style="color:#000;fill:#fd2e11;fill-opacity:1;fill-rule:nonzero;stroke:none;stroke-width:1;marker:none;visibility:visible;display:inline;overflow:visible;enable-background:accumulate" id="rect3979" width="7" height="1" x="204.5" y="271.362"/><rect style="color:#000;fill:#3c3c3c;fill-opacity:1;fill-rule:nonzero;stroke:none;stroke-width:1;marker:none;visibility:visible;display:inline;overflow:visible;enable-background:accumulate" id="rect3981" width="8" height="20" x="194" y="262.362" rx=".5" ry=".5"/><path style="fill:#fff;fill-opacity:1;stroke:none;display:inline" id="path3983" d="m 195,270.36218 0,-7 1.5,0 1.5,5.5 1.5,-5.5 1.5,0 0,7 -1,0 0,-5 -1.5,5 -1,0 -1.5,-5 0,5 z"/><rect id="rect3985" width="7" height="1" x="194.5" y="271.362" style="color:#000;fill:#ff6c00;fill-opacity:1;fill-rule:nonzero;stroke:none;stroke-width:1;marker:none;visibility:visible;display:inline;overflow:visible;enable-background:accumulate"/><rect id="rect3987" width="8" height="20" x="184" y="262.362" rx=".5" ry=".5" style="color:#000;fill:#3c3c3c;fill-opacity:1;fill-rule:nonzero;stroke:none;stroke-width:1;marker:none;visibility:visible;display:inline;overflow:visible;enable-background:accumulate"/><path id="path3989" d="m 185,270.36218 0,-7 1.5,0 1.5,5.5 1.5,-5.5 1.5,0 0,7 -1,0 0,-5 -1.5,5 -1,0 -1.5,-5 0,5 z" style="fill:#fff;fill-opacity:1;stroke:none;display:inline"/><rect style="color:#000;fill:#ffd800;fill-opacity:1;fill-rule:nonzero;stroke:none;stroke-width:1;marker:none;visibility:visible;display:inline;overflow:visible;enable-background:accumulate" id="rect3991" width="7" height="1" x="184.5" y="271.362"/><rect id="rect3993" width="7" height="1" x="184.5" y="273.362" style="color:#000;fill:#0a0;fill-opacity:1;fill-rule:nonzero;stroke:none;stroke-width:1;marker:none;visibility:visible;display:inline;overflow:visible;enable-background:accumulate"/><rect style="color:#000;fill:#2a66ff;fill-opacity:1;fill-rule:nonzero;stroke:none;stroke-width:1;marker:none;visibility:visible;display:inline;overflow:visible;enable-background:accumulate" id="rect3995" width="7" height="1" x="194.5" y="273.362"/><rect id="rect3997" width="7" height="1" x="204.5" y="273.362" style="color:#000;fill:#ff6c00;fill-opacity:1;fill-rule:nonzero;stroke:none;stroke-width:1;marker:none;visibility:visible;display:inline;overflow:visible;enable-background:accumulate"/><rect style="color:#000;fill:#2a66ff;fill-opacity:1;fill-rule:nonzero;stroke:none;stroke-width:1;marker:none;visibility:visible;display:inline;overflow:visible;enable-background:accumulate" id="rect3999" width="7" height="1" x="204.5" y="275.362"/><rect style="color:#000;fill:#0a0;fill-opacity:1;fill-rule:nonzero;stroke:none;stroke-width:1;marker:none;visibility:visible;display:inline;overflow:visible;enable-background:accumulate" id="rect4001" width="7" height="1" x="214.5" y="275.362"/><rect id="rect4003" width="7" height="1" x="214.5" y="273.362" style="color:#000;fill:#ffd800;fill-opacity:1;fill-rule:nonzero;stroke:none;stroke-width:1;marker:none;visibility:visible;display:inline;overflow:visible;enable-background:accumulate"/><rect id="rect4005" width="7" height="1" x="224.5" y="273.362" style="color:#000;fill:#ffd800;fill-opacity:1;fill-rule:nonzero;stroke:none;stroke-width:1;marker:none;visibility:visible;display:inline;overflow:visible;enable-background:accumulate"/><rect style="color:#000;fill:#0a0;fill-opacity:1;fill-rule:nonzero;stroke:none;stroke-width:1;marker:none;visibility:visible;display:inline;overflow:visible;enable-background:accumulate" id="rect4007" width="7" height="1" x="224.5" y="275.362"/><rect id="rect4009" width="7" height="1" x="224.5" y="277.362" style="color:#000;fill:#2a66ff;fill-opacity:1;fill-rule:nonzero;stroke:none;stroke-width:1;marker:none;visibility:visible;display:inline;overflow:visible;enable-background:accumulate"/><rect id="rect4198" width="8" height="9" x="174" y="237.362" rx=".5" ry=".5" style="color:#000;fill:#3c3c3c;fill-opacity:1;fill-rule:nonzero;stroke:none;stroke-width:1;marker:none;visibility:visible;display:inline;overflow:visible;enable-background:accumulate"/><path id="path4200" d="m 175,245.36218 0,-7 1.5,0 1.5,5.5 1.5,-5.5 1.5,0 0,7 -1,0 0,-5 -1.5,5 -1,0 -1.5,-5 0,5 z" style="fill:#fff;fill-opacity:1;stroke:none;display:inline"/><g id="bus-10" transform="translate(29.00686,14.99999)" style="display:inline"><rect id="rect7772" width="6.993" height="6" x="146" y="234.362" rx="1" ry="1" style="color:#000;fill:#ff2205;fill-opacity:1;fill-rule:nonzero;stroke:none;stroke-width:1;marker:none;visibility:visible;display:inline;overflow:visible;enable-background:accumulate"/><rect style="color:#000;fill:#fff;fill-opacity:1;fill-rule:nonzero;stroke:none;stroke-width:1;marker:none;visibility:visible;display:inline;overflow:visible;enable-background:accumulate" id="rect7774" width="4.993" height="2" x="147" y="235.362"/><rect id="rect7776" width="1" height="1" x="147" y="240.362" style="color:#000;fill:#ff2205;fill-opacity:1;fill-rule:nonzero;stroke:none;stroke-width:1;marker:none;visibility:visible;display:inline;overflow:visible;enable-background:accumulate"/><rect style="color:#000;fill:#ff2205;fill-opacity:1;fill-rule:nonzero;stroke:none;stroke-width:1;marker:none;visibility:visible;display:inline;overflow:visible;enable-background:accumulate" id="rect7778" width="1" height="1" x="151" y="240.362"/><rect id="rect7780" width="1" height="1" x="147" y="238.362" style="color:#000;fill:#fff;fill-opacity:1;fill-rule:nonzero;stroke:none;stroke-width:1;marker:none;visibility:visible;display:inline;overflow:visible;enable-background:accumulate"/><rect style="color:#000;fill:#fff;fill-opacity:1;fill-rule:nonzero;stroke:none;stroke-width:1;marker:none;visibility:visible;display:inline;overflow:visible;enable-background:accumulate" id="rect7782" width="1" height="1" x="151" y="238.362"/><g style="opacity:.1;fill:#000;fill-opacity:1" id="g6383" transform="translate(-115,50)"><rect style="color:#000;fill:#000;fill-opacity:1;fill-rule:nonzero;stroke:none;stroke-width:1;marker:none;visibility:visible;display:inline;overflow:visible;enable-background:accumulate" id="rect6379" width="2" height="6" x="261.993" y="197.362"/><rect id="rect6381" width="2" height="6" x="199.362" y="-265.993" transform="matrix(0,1,-1,0,0,0)" style="color:#000;fill:#000;fill-opacity:1;fill-rule:nonzero;stroke:none;stroke-width:1;marker:none;visibility:visible;display:inline;overflow:visible;enable-background:accumulate"/></g><rect id="rect6387" width="9" height="9" x="144.993" y="247.362" style="opacity:0;color:#000;fill:#000;fill-opacity:1;fill-rule:nonzero;stroke:none;stroke-width:1;marker:none;visibility:visible;display:inline;overflow:visible;enable-background:accumulate"/></g><text style="font-size:12px;font-style:normal;font-weight:400;line-height:125%;letter-spacing:0;word-spacing:0;fill:#ff0;fill-opacity:1;stroke:#e10;stroke-width:2;stroke-linejoin:round;stroke-miterlimit:4;stroke-dasharray:none;font-family:Sans;stroke-opacity:1" id="text3818" x="174.725" y="281.138" xml:space="preserve"><tspan id="tspan3820" x="174.725" y="281.138" style="font-size:9px;font-style:normal;font-variant:normal;font-weight:500;font-stretch:normal;text-align:start;line-height:125%;writing-mode:lr-tb;text-anchor:start;fill:#ff0;stroke:#e10;stroke-width:2;stroke-linejoin:round;stroke-miterlimit:4;stroke-dasharray:none;font-family:Function Pro;-inkscape-font-specification:Function Pro Medium;stroke-opacity:1">cb</tspan></text><text id="text3046" x="174.725" y="281.138" xml:space="preserve" style="font-size:12px;font-style:normal;font-weight:400;line-height:125%;letter-spacing:0;word-spacing:0;fill:#fe0;fill-opacity:1;stroke:none;font-family:Sans"><tspan style="font-size:9px;font-style:normal;font-variant:normal;font-weight:500;font-stretch:normal;text-align:start;line-height:125%;writing-mode:lr-tb;text-anchor:start;fill:#fe0;font-family:Function Pro;-inkscape-font-specification:Function Pro Medium;fill-opacity:1" id="tspan3048" x="174.725" y="281.138">cb</tspan></text></g></g></svg>